<svg width="28" height="28" viewBox="0 0 28 28" fill="none" xmlns="http://www.w3.org/2000/svg">
<path d="M10.2296 19.4593C8.84264 19.4593 7.51247 18.9083 6.53172 17.9275C5.55098 16.9468 5 15.6166 5 14.2296C5 12.8426 5.55098 11.5125 6.53172 10.5317C7.51247 9.55098 8.84264 9 10.2296 9H20.2135C21.2222 9 22.1896 9.40071 22.9028 10.114C23.6161 10.8272 24.0168 11.7946 24.0168 12.8034C24.0168 13.8121 23.6161 14.7795 22.9028 15.4927C22.1896 16.206 21.2222 16.6067 20.2135 16.6067H12.1313C11.5009 16.6067 10.8962 16.3563 10.4504 15.9105C10.0046 15.4647 9.75421 14.8601 9.75421 14.2296C9.75421 13.5992 10.0046 12.9946 10.4504 12.5488C10.8962 12.103 11.5009 11.8525 12.1313 11.8525H19.2626V13.2788H12.1313C11.8791 13.2788 11.6373 13.379 11.459 13.5573C11.2806 13.7356 11.1805 13.9774 11.1805 14.2296C11.1805 14.4818 11.2806 14.7237 11.459 14.902C11.6373 15.0803 11.8791 15.1805 12.1313 15.1805H20.2135C20.5256 15.1805 20.8347 15.119 21.1231 14.9995C21.4115 14.8801 21.6736 14.705 21.8943 14.4842C22.1151 14.2635 22.2902 14.0014 22.4096 13.713C22.5291 13.4246 22.5906 13.1155 22.5906 12.8034C22.5906 12.4912 22.5291 12.1821 22.4096 11.8937C22.2902 11.6053 22.1151 11.3432 21.8943 11.1225C21.6736 10.9018 21.4115 10.7267 21.1231 10.6072C20.8347 10.4877 20.5256 10.4263 20.2135 10.4263H10.2296C9.22091 10.4263 8.25351 10.827 7.54024 11.5402C6.82697 12.2535 6.42626 13.2209 6.42626 14.2296C6.42626 15.2383 6.82697 16.2057 7.54024 16.919C8.25351 17.6323 9.22091 18.033 10.2296 18.033H19.2626V19.4593H10.2296Z" fill="#6B6565"/>
</svg>
