<svg width="24" height="24" viewBox="0 0 24 24" fill="none" xmlns="http://www.w3.org/2000/svg">
<path d="M7.54703 19.6783H16.9924L17.5135 8.65225H7.02588L7.54703 19.6783Z" fill="black" fill-opacity="0.15"/>
<path d="M19.8499 7.10107H17.0934V5.37826C17.0934 4.61806 16.4754 4 15.7152 4H8.82389C8.0637 4 7.44564 4.61806 7.44564 5.37826V7.10107H4.68913C4.30795 7.10107 4 7.40903 4 7.7902V8.47933C4 8.57409 4.07753 8.65161 4.17228 8.65161H5.47301L6.00493 19.9145C6.03939 20.6489 6.64668 21.2282 7.38103 21.2282H17.158C17.8945 21.2282 18.4997 20.651 18.5341 19.9145L19.0661 8.65161H20.3668C20.4615 8.65161 20.5391 8.57409 20.5391 8.47933V7.7902C20.5391 7.40903 20.2311 7.10107 19.8499 7.10107ZM8.99618 5.55054H15.5429V7.10107H8.99618V5.55054ZM16.9922 19.6777H7.54685L7.0257 8.65161H17.5134L16.9922 19.6777Z" fill="#6B6565"/>
</svg>
