<svg width="47" height="46" viewBox="0 0 47 46" fill="none" xmlns="http://www.w3.org/2000/svg">
<path fill-rule="evenodd" clip-rule="evenodd" d="M23.5811 46C29.681 46 35.5312 43.5768 39.8445 39.2635C44.1578 34.9501 46.5811 29.1 46.5811 23C46.5811 16.9 44.1578 11.0499 39.8445 6.73654C35.5312 2.42321 29.681 0 23.5811 0C17.4811 0 11.6309 2.42321 7.3176 6.73654C3.00426 11.0499 0.581055 16.9 0.581055 23C0.581055 29.1 3.00426 34.9501 7.3176 39.2635C11.6309 43.5768 17.4811 46 23.5811 46V46ZM10.6436 14.375C10.2623 14.375 9.89667 14.5265 9.62709 14.796C9.35751 15.0656 9.20605 15.4313 9.20605 15.8125C9.20605 16.1937 9.35751 16.5594 9.62709 16.829C9.89667 17.0985 10.2623 17.25 10.6436 17.25H36.5186C36.8998 17.25 37.2654 17.0985 37.535 16.829C37.8046 16.5594 37.9561 16.1937 37.9561 15.8125C37.9561 15.4313 37.8046 15.0656 37.535 14.796C37.2654 14.5265 36.8998 14.375 36.5186 14.375H10.6436ZM14.9561 24.4375C14.9561 24.0563 15.1075 23.6906 15.3771 23.421C15.6467 23.1514 16.0123 23 16.3936 23H30.7686C31.1498 23 31.5154 23.1514 31.785 23.421C32.0546 23.6906 32.2061 24.0563 32.2061 24.4375C32.2061 24.8187 32.0546 25.1844 31.785 25.454C31.5154 25.7236 31.1498 25.875 30.7686 25.875H16.3936C16.0123 25.875 15.6467 25.7236 15.3771 25.454C15.1075 25.1844 14.9561 24.8187 14.9561 24.4375ZM20.7061 33.0625C20.7061 32.6813 20.8575 32.3156 21.1271 32.046C21.3967 31.7764 21.7623 31.625 22.1436 31.625H25.0186C25.3998 31.625 25.7654 31.7764 26.035 32.046C26.3046 32.3156 26.4561 32.6813 26.4561 33.0625C26.4561 33.4437 26.3046 33.8094 26.035 34.079C25.7654 34.3486 25.3998 34.5 25.0186 34.5H22.1436C21.7623 34.5 21.3967 34.3486 21.1271 34.079C20.8575 33.8094 20.7061 33.4437 20.7061 33.0625Z" fill="#3B3B3B"/>
</svg>
