<svg width="28" height="28" viewBox="0 0 28 28" fill="none" xmlns="http://www.w3.org/2000/svg">
<path fill-rule="evenodd" clip-rule="evenodd" d="M14.0424 21.0795C15.9088 21.0795 17.6987 20.3381 19.0184 19.0184C20.3381 17.6987 21.0795 15.9088 21.0795 14.0424C21.0795 12.1761 20.3381 10.3861 19.0184 9.06643C17.6987 7.74671 15.9088 7.0053 14.0424 7.0053C12.1761 7.0053 10.3861 7.74671 9.06643 9.06643C7.74671 10.3861 7.0053 12.1761 7.0053 14.0424C7.0053 15.9088 7.74671 17.6987 9.06643 19.0184C10.3861 20.3381 12.1761 21.0795 14.0424 21.0795V21.0795ZM14.0424 22.0848C16.1754 22.0848 18.221 21.2375 19.7293 19.7293C21.2375 18.221 22.0848 16.1754 22.0848 14.0424C22.0848 11.9094 21.2375 9.86382 19.7293 8.35557C18.221 6.84732 16.1754 6 14.0424 6C11.9094 6 9.86382 6.84732 8.35557 8.35557C6.84732 9.86382 6 11.9094 6 14.0424C6 16.1754 6.84732 18.221 8.35557 19.7293C9.86382 21.2375 11.9094 22.0848 14.0424 22.0848V22.0848Z" fill="#6B6565"/>
<path fill-rule="evenodd" clip-rule="evenodd" d="M10.308 15.6177C10.4234 15.551 10.5606 15.533 10.6894 15.5675C10.8181 15.602 10.9279 15.6862 10.9946 15.8016C11.3033 16.3368 11.7476 16.7812 12.2827 17.09C12.8178 17.3989 13.4248 17.5613 14.0427 17.5609C14.6605 17.5613 15.2675 17.3989 15.8026 17.09C16.3377 16.7812 16.782 16.3368 17.0907 15.8016C17.1235 15.744 17.1673 15.6934 17.2197 15.6528C17.2721 15.6122 17.332 15.5824 17.396 15.565C17.46 15.5476 17.5267 15.5431 17.5925 15.5516C17.6582 15.5602 17.7216 15.5816 17.779 15.6148C17.8364 15.6479 17.8867 15.6921 17.927 15.7447C17.9673 15.7974 17.9967 15.8575 18.0136 15.9216C18.0306 15.9857 18.0347 16.0525 18.0257 16.1182C18.0167 16.1838 17.9948 16.2471 17.9613 16.3043C17.5644 16.9923 16.9932 17.5635 16.3052 17.9606C15.6173 18.3577 14.8369 18.5666 14.0427 18.5662C13.2484 18.5666 12.468 18.3577 11.7801 17.9606C11.0921 17.5635 10.521 16.9923 10.124 16.3043C10.0573 16.1888 10.0393 16.0516 10.0738 15.9229C10.1083 15.7941 10.1925 15.6843 10.308 15.6177Z" fill="#6B6565"/>
<path d="M13.037 12.5345C13.037 13.3669 12.5866 14.0424 12.0317 14.0424C11.4767 14.0424 11.0264 13.3669 11.0264 12.5345C11.0264 11.7021 11.4767 11.0265 12.0317 11.0265C12.5866 11.0265 13.037 11.7021 13.037 12.5345ZM17.0582 12.5345C17.0582 13.3669 16.6078 14.0424 16.0529 14.0424C15.498 14.0424 15.0476 13.3669 15.0476 12.5345C15.0476 11.7021 15.498 11.0265 16.0529 11.0265C16.6078 11.0265 17.0582 11.7021 17.0582 12.5345Z" fill="#6B6565"/>
</svg>
