<svg width="28" height="28" viewBox="0 0 28 28" fill="none" xmlns="http://www.w3.org/2000/svg">
<path d="M11.1321 9.19804C11.1321 8.34987 11.469 7.53643 12.0688 6.93669C12.6685 6.33694 13.4819 6 14.3301 6C15.1783 6 15.9917 6.33694 16.5915 6.93669C17.1912 7.53643 17.5282 8.34987 17.5282 9.19804V14.5281C17.5282 15.3763 17.1912 16.1897 16.5915 16.7895C15.9917 17.3892 15.1783 17.7262 14.3301 17.7262C13.4819 17.7262 12.6685 17.3892 12.0688 16.7895C11.469 16.1897 11.1321 15.3763 11.1321 14.5281V9.19804Z" fill="#6B6565"/>
<path fill-rule="evenodd" clip-rule="evenodd" d="M9.53301 12.9293C9.67437 12.9293 9.80994 12.9854 9.9099 13.0854C10.0099 13.1854 10.066 13.3209 10.066 13.4623V14.5283C10.066 15.6592 10.5153 16.7438 11.3149 17.5435C12.1146 18.3431 13.1992 18.7924 14.3301 18.7924C15.461 18.7924 16.5455 18.3431 17.3452 17.5435C18.1449 16.7438 18.5941 15.6592 18.5941 14.5283V13.4623C18.5941 13.3209 18.6503 13.1854 18.7502 13.0854C18.8502 12.9854 18.9858 12.9293 19.1271 12.9293C19.2685 12.9293 19.4041 12.9854 19.504 13.0854C19.604 13.1854 19.6601 13.3209 19.6601 13.4623V14.5283C19.6602 15.8497 19.1694 17.1239 18.283 18.1039C17.3966 19.0838 16.1778 19.6996 14.8631 19.8317V21.9904H18.0611C18.2025 21.9904 18.3381 22.0466 18.438 22.1465C18.538 22.2465 18.5941 22.3821 18.5941 22.5234C18.5941 22.6648 18.538 22.8004 18.438 22.9003C18.3381 23.0003 18.2025 23.0564 18.0611 23.0564H10.599C10.4577 23.0564 10.3221 23.0003 10.2221 22.9003C10.1222 22.8004 10.066 22.6648 10.066 22.5234C10.066 22.3821 10.1222 22.2465 10.2221 22.1465C10.3221 22.0466 10.4577 21.9904 10.599 21.9904H13.7971V19.8317C12.4823 19.6996 11.2635 19.0838 10.3772 18.1039C9.49078 17.1239 8.99998 15.8497 9 14.5283V13.4623C9 13.3209 9.05616 13.1854 9.15611 13.0854C9.25607 12.9854 9.39164 12.9293 9.53301 12.9293Z" fill="#6B6565"/>
</svg>
